<svg width="15" height="15" viewBox="0 0 15 15" fill="none" xmlns="http://www.w3.org/2000/svg">
<path fill-rule="evenodd" clip-rule="evenodd" d="M3.62556 2.75C3.83484 2.75 4.02198 2.88034 4.09454 3.07664L7.16991 11.3962C7.26566 11.6552 7.1333 11.9428 6.87429 12.0386C6.61528 12.1343 6.32769 12.002 6.23195 11.7429L5.22393 9.01603H2.02718L1.01917 11.7429C0.923423 12.002 0.635835 12.1343 0.376823 12.0386C0.11781 11.9428 -0.0145441 11.6552 0.0812011 11.3962L3.15657 3.07664C3.22914 2.88034 3.41628 2.75 3.62556 2.75ZM3.62556 4.69207L4.90973 8.16603H2.34139L3.62556 4.69207ZM11.3719 2.75C11.5812 2.75 11.7683 2.88034 11.8409 3.07664L14.9163 11.3962C15.012 11.6552 14.8797 11.9428 14.6207 12.0386C14.3616 12.1343 14.074 12.002 13.9783 11.7429L12.9703 9.01603H9.77354L8.76553 11.7429C8.66978 12.002 8.38219 12.1343 8.12318 12.0386C7.86417 11.9428 7.73181 11.6552 7.82756 11.3962L10.9029 3.07664C10.9755 2.88034 11.1626 2.75 11.3719 2.75ZM11.3719 4.69207L12.6561 8.16603H10.0877L11.3719 4.69207Z" fill="black"/>
</svg>
