<svg width="15" height="15" viewBox="0 0 15 15" fill="none" xmlns="http://www.w3.org/2000/svg">
<path fill-rule="evenodd" clip-rule="evenodd" d="M4.50023 0C4.77637 0 5.00022 0.223854 5.00022 0.499992V2.49996C5.00022 2.7761 4.77637 2.99995 4.50023 2.99995C4.22409 2.99995 4.00024 2.7761 4.00024 2.49996V0.499992C4.00024 0.223854 4.22409 0 4.50023 0ZM0.646454 0.646473C0.841713 0.451214 1.15829 0.451214 1.35355 0.646473L2.85352 2.14645C3.04878 2.34171 3.04878 2.65828 2.85352 2.85354C2.65827 3.0488 2.34169 3.0488 2.14643 2.85354L0.646454 1.35357C0.451195 1.15831 0.451195 0.841732 0.646454 0.646473ZM0.000305171 4.49993C0.000305171 4.22379 0.224159 3.99993 0.500297 3.99993H2.50026C2.7764 3.99993 3.00026 4.22379 3.00026 4.49993C3.00026 4.77606 2.7764 4.99992 2.50026 4.99992H0.500297C0.224159 4.99992 0.000305171 4.77606 0.000305171 4.49993ZM12.0001 10.4998C12.0001 10.2237 12.224 9.99984 12.5001 9.99984H14.5001C14.7762 9.99984 15.0001 10.2237 15.0001 10.4998C15.0001 10.776 14.7762 10.9998 14.5001 10.9998H12.5001C12.224 10.9998 12.0001 10.776 12.0001 10.4998ZM10.5001 11.9998C10.7763 11.9998 11.0001 12.2237 11.0001 12.4998V14.4998C11.0001 14.7759 10.7763 14.9998 10.5001 14.9998C10.224 14.9998 10.0001 14.7759 10.0001 14.4998V12.4998C10.0001 12.2237 10.224 11.9998 10.5001 11.9998ZM12.1463 12.1463C12.3415 11.951 12.6581 11.951 12.8534 12.1463L14.3533 13.6463C14.5486 13.8415 14.5486 14.1581 14.3533 14.3534C14.1581 14.5486 13.8415 14.5486 13.6462 14.3534L12.1463 12.8534C11.951 12.6581 11.951 12.3415 12.1463 12.1463ZM7.76481 3.69939C8.19181 3.2724 8.35727 3.1101 8.51163 3.00524C9.18798 2.54578 10.0431 2.53678 10.6785 2.95402C10.8227 3.04876 10.9768 3.19912 11.3887 3.611C11.8006 4.02289 11.9509 4.17695 12.0457 4.32122C12.4629 4.95655 12.4539 5.8117 11.9944 6.48804C11.8896 6.64241 11.7273 6.80787 11.3003 7.23487L10.6816 7.85358C10.4863 8.04883 10.4863 8.36541 10.6816 8.56067C10.8768 8.75593 11.1934 8.75593 11.3887 8.56067L12.0074 7.94196L12.0503 7.89906C12.4199 7.52953 12.6565 7.29306 12.8216 7.04996C13.4968 6.05601 13.5317 4.76232 12.8815 3.77229C12.7229 3.53084 12.4918 3.29983 12.1404 2.94854L12.0958 2.90391L12.0511 2.85926C11.6998 2.50784 11.4688 2.27673 11.2274 2.11817C10.2374 1.46799 8.94367 1.50284 7.94972 2.17806C7.70662 2.3432 7.47016 2.57974 7.10063 2.94938L7.10062 2.94938L7.05772 2.9923L6.43901 3.611C6.24375 3.80626 6.24375 4.12284 6.43901 4.3181C6.63427 4.51336 6.95084 4.51336 7.1461 4.3181L7.76481 3.69939ZM2.99192 7.05809L2.949 7.101C2.57936 7.47053 2.34282 7.707 2.17768 7.95009C1.50246 8.94405 1.46761 10.2377 2.11779 11.2278C2.27635 11.4692 2.50745 11.7002 2.85887 12.0515L2.85889 12.0515L2.90353 12.0961L2.94816 12.1408L2.94816 12.1408L2.94818 12.1408C3.29946 12.4922 3.53047 12.7233 3.77191 12.8819C4.76194 13.5321 6.05563 13.4972 7.04959 12.822C7.29268 12.6569 7.52915 12.4203 7.89868 12.0507L7.94159 12.0078L8.56029 11.3891C8.75555 11.1938 8.75555 10.8772 8.56029 10.682C8.36503 10.4867 8.04846 10.4867 7.8532 10.682L7.23449 11.3007C6.80749 11.7277 6.64203 11.89 6.48767 11.9948C5.81132 12.4543 4.95617 12.4633 4.32084 12.046C4.17657 11.9513 4.02251 11.8009 3.61063 11.3891C3.19875 10.9772 3.04838 10.8231 2.95364 10.6788C2.5364 10.0435 2.5454 9.18836 3.00486 8.51201C3.10972 8.35765 3.27202 8.19218 3.69901 7.76519L4.31772 7.14648C4.51298 6.95122 4.51298 6.63464 4.31772 6.43939C4.12246 6.24413 3.80589 6.24413 3.61063 6.43939L2.99192 7.05809Z" fill="black"/>
</svg>
