<svg width="15" height="15" viewBox="0 0 15 15" fill="none" xmlns="http://www.w3.org/2000/svg">
<path fill-rule="evenodd" clip-rule="evenodd" d="M1.84998 7.50046C1.84998 4.37979 4.3796 1.85004 7.49998 1.85004C10.6204 1.85004 13.15 4.37979 13.15 7.50046C13.15 10.6211 10.6204 13.1509 7.49998 13.1509C4.3796 13.1509 1.84998 10.6211 1.84998 7.50046ZM7.49998 0.850037C3.82725 0.850037 0.849976 3.82757 0.849976 7.50046C0.849976 11.1734 3.82725 14.1509 7.49998 14.1509C11.1727 14.1509 14.15 11.1734 14.15 7.50046C14.15 3.82757 11.1727 0.850037 7.49998 0.850037ZM6.99998 8.00004V3.12814C7.16408 3.10957 7.33091 3.10004 7.49998 3.10004C9.93003 3.10004 11.9 5.07017 11.9 7.50046C11.9 7.66938 11.8905 7.83607 11.8719 8.00004H6.99998Z" fill="black"/>
</svg>
