<svg width="15" height="15" viewBox="0 0 15 15" fill="none" xmlns="http://www.w3.org/2000/svg">
<path fill-rule="evenodd" clip-rule="evenodd" d="M7.23348 4.69629C7.23348 2.96884 8.63347 1.56857 10.3601 1.56857C11.3737 1.56857 12.1831 2.04804 12.7255 2.74385C13.3081 2.62467 13.8558 2.40913 14.3514 2.11508C14.156 2.72598 13.7425 3.2396 13.2035 3.56463C13.2039 3.56568 13.2044 3.56674 13.2048 3.56779C13.7335 3.50361 14.2365 3.36302 14.705 3.15546L14.7038 3.15715C14.3668 3.66183 13.9432 4.10736 13.4563 4.47034C13.4824 4.64672 13.4957 4.82427 13.4957 5.00079C13.4957 8.6871 10.6874 12.9746 5.52135 12.9746C3.93918 12.9746 2.46556 12.511 1.22517 11.7152C0.992754 11.5661 0.92523 11.2568 1.07435 11.0244C1.08753 11.0038 1.10195 10.9846 1.11746 10.9666C1.20594 10.8202 1.3745 10.7309 1.55552 10.7522C2.47079 10.8601 3.3858 10.7485 4.19231 10.3962C3.39239 10.0434 2.77142 9.35975 2.50216 8.51974C2.45371 8.3686 2.48847 8.20311 2.59363 8.08422C2.59728 8.0801 2.60099 8.07606 2.60476 8.0721C1.96403 7.50819 1.55985 6.68208 1.55985 5.76143V5.72759C1.55985 5.56814 1.64424 5.42059 1.78167 5.33974C1.82683 5.31317 1.8755 5.29511 1.92544 5.28558C1.70561 4.86154 1.58128 4.37984 1.58128 3.86958C1.58128 3.40165 1.58396 2.81192 1.91344 2.28081C1.98731 2.16175 2.1077 2.08915 2.23652 2.07195C2.42601 2.01237 2.64099 2.06969 2.77418 2.23302C3.86548 3.57126 5.44078 4.49583 7.23378 4.73961L7.23348 4.69629ZM5.52135 11.9746C4.73399 11.9746 3.97794 11.8435 3.2726 11.6023C4.13024 11.4538 4.95319 11.1159 5.66231 10.5602C5.81223 10.4427 5.87194 10.2435 5.81138 10.0629C5.75082 9.88234 5.58312 9.75943 5.39267 9.75607C4.6898 9.74366 4.06724 9.39716 3.67805 8.86845C3.8684 8.85306 4.0544 8.82039 4.23457 8.77167C4.43615 8.71716 4.57375 8.53114 4.56686 8.32243C4.55997 8.11372 4.41041 7.93718 4.20568 7.89607C3.42706 7.73977 2.79895 7.16764 2.56181 6.42174C2.76267 6.47025 2.97114 6.4991 3.18494 6.5061C3.38575 6.51267 3.56659 6.38533 3.62807 6.19405C3.68955 6.00277 3.61679 5.79391 3.44976 5.68224C2.86536 5.29155 2.48128 4.62464 2.48128 3.86958C2.48128 3.70213 2.48364 3.55268 2.49367 3.41719C3.85127 4.79913 5.70885 5.68931 7.77601 5.79338C7.93237 5.80126 8.0834 5.73543 8.18407 5.61553C8.28475 5.49562 8.32344 5.33548 8.28863 5.18284C8.25267 5.02517 8.23348 4.86284 8.23348 4.69629C8.23348 3.52085 9.18604 2.56857 10.3601 2.56857C11.5944 2.56857 12.4957 3.71208 12.4957 5.00079C12.4957 8.25709 10.0203 11.9746 5.52135 11.9746Z" fill="black"/>
</svg>
