<svg width="15" height="15" viewBox="0 0 15 15" fill="none" xmlns="http://www.w3.org/2000/svg">
<path fill-rule="evenodd" clip-rule="evenodd" d="M5.07441 1.82583C5.03256 1.81925 4.99003 1.81824 4.94793 1.82283C4.10673 1.91445 2.82663 2.36827 2.07105 2.77807C2.02096 2.80524 1.97611 2.84111 1.93859 2.88401C1.62492 3.24265 1.34036 3.82835 1.11696 4.38185C0.887345 4.95075 0.697191 5.55031 0.588835 5.98353C0.23613 7.39368 0.0423995 9.08727 0.0173922 10.6925C0.0161404 10.7729 0.0350857 10.8523 0.0724905 10.9234C0.373576 11.496 1.02005 12.027 1.66798 12.4152C2.32322 12.8078 3.08721 13.1182 3.70375 13.1778C3.85324 13.1922 4.00088 13.1358 4.10272 13.0254C4.2571 12.8581 4.5192 12.4676 4.71735 12.1643C4.80728 12.0267 4.89147 11.8953 4.95835 11.7901C5.62013 11.9106 6.45033 11.9801 7.49992 11.9801C8.54834 11.9801 9.37785 11.9107 10.0393 11.7905C10.1061 11.8957 10.1902 12.0268 10.28 12.1643C10.4782 12.4676 10.7403 12.8581 10.8946 13.0254C10.9965 13.1358 11.1441 13.1922 11.2936 13.1778C11.9101 13.1182 12.6741 12.8078 13.3294 12.4152C13.9773 12.027 14.6238 11.496 14.9249 10.9234C14.9623 10.8523 14.9812 10.7729 14.98 10.6925C14.955 9.08727 14.7612 7.39368 14.4085 5.98353C14.3002 5.55031 14.11 4.95075 13.8804 4.38185C13.657 3.82835 13.3724 3.24265 13.0588 2.88401C13.0212 2.84111 12.9764 2.80524 12.9263 2.77807C12.1707 2.36827 10.8906 1.91445 10.0494 1.82283C10.0073 1.81824 9.96479 1.81925 9.92295 1.82583C9.71665 1.85824 9.53899 1.96457 9.40798 2.06354C9.26967 2.16803 9.1412 2.29667 9.0303 2.42681C8.86958 2.61543 8.71426 2.84487 8.61418 3.06224C8.27226 3.035 7.90128 3.01999 7.4999 3.01999C7.0976 3.01999 6.72583 3.03506 6.38326 3.06243C6.28318 2.845 6.12782 2.61548 5.96705 2.42681C5.85616 2.29667 5.72768 2.16803 5.58937 2.06354C5.45836 1.96457 5.2807 1.85824 5.07441 1.82583ZM11.018 11.5382C11.0394 11.5713 11.0614 11.6051 11.0837 11.6392C11.2168 11.843 11.3486 12.0385 11.4507 12.1808C11.8474 12.0916 12.3519 11.8817 12.836 11.5917C13.3794 11.2661 13.8097 10.8918 14.0176 10.5739C13.9851 9.06757 13.7992 7.50368 13.4772 6.21647C13.3799 5.82758 13.2037 5.2702 12.9902 4.74116C12.7892 4.24325 12.5752 3.82161 12.3879 3.57918C11.7375 3.24218 10.7128 2.88581 10.0453 2.78986C10.0307 2.79837 10.0112 2.81101 9.98664 2.82954C9.91853 2.88099 9.84007 2.95665 9.761 3.04944C9.71949 3.09816 9.68155 3.14709 9.64758 3.19448C9.9529 3.2503 10.2252 3.31709 10.4661 3.39122C11.1498 3.60159 11.6427 3.89038 11.8839 4.21199C12.043 4.42407 12 4.72493 11.7879 4.88399C11.5758 5.04305 11.275 5.00007 11.1159 4.78799C11.0571 4.7096 10.8 4.49839 10.1837 4.30876C9.58923 4.12584 8.71346 3.97999 7.4999 3.97999C6.28633 3.97999 5.41056 4.12584 4.81605 4.30876C4.19978 4.49839 3.94269 4.7096 3.8839 4.78799C3.72484 5.00007 3.42397 5.04305 3.2119 4.88399C2.99982 4.72493 2.95684 4.42407 3.1159 4.21199C3.3571 3.89038 3.85001 3.60159 4.53373 3.39122C4.77408 3.31726 5.04561 3.25061 5.35006 3.19487C5.31601 3.14736 5.27798 3.0983 5.23635 3.04944C5.15728 2.95665 5.07882 2.88099 5.01071 2.82954C4.98618 2.81101 4.96664 2.79837 4.95207 2.78986C4.28453 2.88581 3.25989 3.24218 2.60944 3.57918C2.42215 3.82161 2.20815 4.24325 2.00718 4.74116C1.79365 5.2702 1.61741 5.82758 1.52015 6.21647C1.19819 7.50368 1.01226 9.06757 0.979757 10.5739C1.18762 10.8918 1.61797 11.2661 2.16138 11.5917C2.64547 11.8817 3.14992 12.0916 3.5467 12.1808C3.64874 12.0385 3.78055 11.843 3.91369 11.6392C3.93616 11.6048 3.95828 11.5708 3.97985 11.5375C3.19511 11.2591 2.7735 10.8758 2.50054 10.4664C2.35349 10.2458 2.41309 9.94777 2.63367 9.80072C2.85424 9.65368 3.15226 9.71328 3.29931 9.93386C3.56067 10.3259 4.24345 11.0201 7.49992 11.0201C10.7564 11.0201 11.4391 10.326 11.7005 9.93385C11.8476 9.71328 12.1456 9.65368 12.3662 9.80073C12.5868 9.94778 12.6464 10.2458 12.4993 10.4664C12.2261 10.8762 11.804 11.2597 11.018 11.5382ZM4.08038 7.0122C4.32401 6.74983 4.65466 6.60161 4.99997 6.59996C5.34528 6.60161 5.67593 6.74983 5.91956 7.0122C6.16319 7.27458 6.29997 7.62973 6.29997 7.99996C6.29997 8.37019 6.16319 8.72535 5.91956 8.98772C5.67593 9.2501 5.34528 9.39832 4.99997 9.39996C4.65466 9.39832 4.32401 9.2501 4.08038 8.98772C3.83675 8.72535 3.69997 8.37019 3.69997 7.99996C3.69997 7.62973 3.83675 7.27458 4.08038 7.0122ZM9.99875 6.59996C9.65344 6.60161 9.32279 6.74983 9.07916 7.0122C8.83553 7.27458 8.69875 7.62973 8.69875 7.99996C8.69875 8.37019 8.83553 8.72535 9.07916 8.98772C9.32279 9.2501 9.65344 9.39832 9.99875 9.39996C10.3441 9.39832 10.6747 9.2501 10.9183 8.98772C11.162 8.72535 11.2987 8.37019 11.2987 7.99996C11.2987 7.62973 11.162 7.27458 10.9183 7.0122C10.6747 6.74983 10.3441 6.60161 9.99875 6.59996Z" fill="black"/>
</svg>
